<svg xmlns="http://www.w3.org/2000/svg" width="13.612" height="15.797" viewBox="0 0 13.612 15.797">
  <path id="Icon_awesome-calendar-alt" data-name="Icon awesome-calendar-alt" d="M0,14.316A1.47,1.47,0,0,0,1.458,15.8H12.153a1.47,1.47,0,0,0,1.458-1.481V5.924H0ZM9.723,8.269a.369.369,0,0,1,.365-.37H11.3a.369.369,0,0,1,.365.37V9.5a.369.369,0,0,1-.365.37H10.087a.369.369,0,0,1-.365-.37Zm0,3.949a.369.369,0,0,1,.365-.37H11.3a.369.369,0,0,1,.365.37v1.234a.369.369,0,0,1-.365.37H10.087a.369.369,0,0,1-.365-.37ZM5.834,8.269A.369.369,0,0,1,6.2,7.9H7.414a.369.369,0,0,1,.365.37V9.5a.369.369,0,0,1-.365.37H6.2a.369.369,0,0,1-.365-.37Zm0,3.949a.369.369,0,0,1,.365-.37H7.414a.369.369,0,0,1,.365.37v1.234a.369.369,0,0,1-.365.37H6.2a.369.369,0,0,1-.365-.37ZM1.945,8.269a.369.369,0,0,1,.365-.37H3.524a.369.369,0,0,1,.365.37V9.5a.369.369,0,0,1-.365.37H2.309a.369.369,0,0,1-.365-.37Zm0,3.949a.369.369,0,0,1,.365-.37H3.524a.369.369,0,0,1,.365.37v1.234a.369.369,0,0,1-.365.37H2.309a.369.369,0,0,1-.365-.37ZM12.153,1.975H10.695V.494A.491.491,0,0,0,10.209,0H9.237A.491.491,0,0,0,8.75.494V1.975H4.861V.494A.491.491,0,0,0,4.375,0H3.4a.491.491,0,0,0-.486.494V1.975H1.458A1.47,1.47,0,0,0,0,3.456V4.937H13.612V3.456A1.47,1.47,0,0,0,12.153,1.975Z" fill="#fff"/>
</svg>
