<svg xmlns="http://www.w3.org/2000/svg" width="145.582" height="72.903" viewBox="0 0 245.582 72.903">
  <g id="Guru_Utvikling_Logo" data-name="Guru Utvikling Logo" transform="translate(-95.588 -142.59)">
    <circle id="Ellipse_23" data-name="Ellipse 23" cx="16.73" cy="16.73" r="16.73" transform="translate(99.275 181.03) rotate(-80.008)" fill="none" stroke="#282727" stroke-miterlimit="10" stroke-width="6.366"/>
    <path id="Path_801" data-name="Path 801" d="M135.39,196.59c0,9.22-7.49,15.72-16.73,15.72s-16.73-6.5-16.73-15.72" fill="none" stroke="#2388a8" stroke-miterlimit="10" stroke-width="6.366"/>
    <path id="Path_802" data-name="Path 802" d="M141.49,146.32a3.73,3.73,0,1,1-3.73-3.73,3.73,3.73,0,0,1,3.73,3.73" fill="#2388a8"/>
    <path id="Path_803" data-name="Path 803" d="M173.03,150.18a12.135,12.135,0,0,1,9.62,4.37L181,155.74a10.416,10.416,0,0,0-7.97-3.57c-6.02,0-10.66,4.56-10.66,11.23,0,6.6,4.64,11.27,10.66,11.27a10.85,10.85,0,0,0,7.51-3.11v-6.14h-9.66v-1.96h11.85v8.93a12.9,12.9,0,0,1-9.7,4.26c-7.17,0-12.96-5.37-12.96-13.27,0-7.87,5.79-13.2,12.96-13.2" fill="#2388a8"/>
    <path id="Path_804" data-name="Path 804" d="M188.29,150.61h2.22v15.72c0,5.18,2.72,8.32,7.75,8.32,5.06,0,7.75-3.14,7.75-8.32V150.61h2.22v15.76c0,6.33-3.37,10.28-9.97,10.28-6.56,0-9.97-3.99-9.97-10.28Z" fill="#2388a8"/>
    <path id="Path_805" data-name="Path 805" d="M223.95,152.6h-7.17v11.01h7.17a5.507,5.507,0,1,0,0-11.01m-1.53,13h-5.64v10.58H214.6V150.6h9.55c4.41,0,7.79,2.8,7.79,7.48a7.044,7.044,0,0,1-7.09,7.36l7.4,10.74H229.6Z" fill="#2388a8"/>
    <path id="Path_806" data-name="Path 806" d="M237.37,150.61h2.22v15.72c0,5.18,2.72,8.32,7.75,8.32,5.06,0,7.75-3.14,7.75-8.32V150.61h2.22v15.76c0,6.33-3.37,10.28-9.97,10.28-6.56,0-9.97-3.99-9.97-10.28Z" fill="#2388a8"/>
    <path id="Path_807" data-name="Path 807" d="M161.03,186.23h2.22v15.72c0,5.18,2.72,8.32,7.75,8.32,5.06,0,7.75-3.14,7.75-8.32V186.23h2.22v15.76c0,6.33-3.38,10.28-9.97,10.28-6.56,0-9.97-3.99-9.97-10.28Z" fill="#282727"/>
    <path id="Path_808" data-name="Path 808" d="M193.85,188.23h-8.36v-2h18.95v2h-8.36v23.58h-2.23Z" fill="#282727"/>
    <path id="Path_809" data-name="Path 809" d="M206.35,186.23h2.53l9.28,23.12,9.32-23.12h2.53l-10.47,25.58h-2.72Z" fill="#282727"/>
    <rect id="Rectangle_247" data-name="Rectangle 247" width="2.19" height="25.58" transform="translate(233.77 186.23)" fill="#282727"/>
    <path id="Path_810" data-name="Path 810" d="M247.34,199.77l-2.84,3.1v8.94h-2.19V186.23h2.19v14l12.35-14h2.8l-10.89,12.2,11.92,13.38h-2.8Z" fill="#282727"/>
    <path id="Path_811" data-name="Path 811" d="M264.78,186.23h2.19v23.58h12.38v2H264.78Z" fill="#282727"/>
    <rect id="Rectangle_248" data-name="Rectangle 248" width="2.19" height="25.58" transform="translate(284.11 186.23)" fill="#282727"/>
    <path id="Path_812" data-name="Path 812" d="M294.84,189.72v22.09h-2.18V186.23h2.22l16.03,21.78V186.23h2.18v25.58h-2.14Z" fill="#282727"/>
    <path id="Path_813" data-name="Path 813" d="M331.46,185.81a12.135,12.135,0,0,1,9.62,4.37l-1.65,1.19a10.416,10.416,0,0,0-7.97-3.57c-6.02,0-10.66,4.56-10.66,11.23,0,6.6,4.64,11.27,10.66,11.27a10.938,10.938,0,0,0,7.52-3.1v-6.14h-9.66V199.1h11.85v8.93a12.918,12.918,0,0,1-9.7,4.26c-7.17,0-12.96-5.37-12.96-13.27-.01-7.88,5.78-13.21,12.95-13.21" fill="#282727"/>
  </g>
</svg>
