<svg xmlns="http://www.w3.org/2000/svg" width="19.672" height="19.27" viewBox="0 0 19.672 19.27">
  <g id="location-mark" transform="translate(0 -0.468)">
    <g id="Group_10" data-name="Group 10" transform="translate(0 0.468)">
      <path id="Path_19" data-name="Path 19" d="M14.362,28.334q-.461.742-1,1.546c3.051.456,4.612,1.434,4.612,1.92,0,.647-2.767,2.165-8.134,2.165S1.7,32.447,1.7,31.8c0-.486,1.562-1.463,4.613-1.92q-.544-.8-1-1.546C2.3,28.9,0,30.07,0,31.8c0,2.538,4.949,3.866,9.836,3.866s9.836-1.328,9.836-3.866C19.672,30.07,17.374,28.9,14.362,28.334Z" transform="translate(0 -16.396)" fill="#fff"/>
      <path id="Path_20" data-name="Path 20" d="M15.285,15.711a1.386,1.386,0,0,0,1.119-.568C18.077,12.86,21.037,8.5,21.037,6.22a5.752,5.752,0,0,0-11.5,0c0,2.278,2.959,6.639,4.632,8.923A1.391,1.391,0,0,0,15.285,15.711Zm-2.393-9.6A2.392,2.392,0,1,1,15.284,8.5,2.392,2.392,0,0,1,12.892,6.107Z" transform="translate(-5.448 -0.468)" fill="#fff"/>
    </g>
  </g>
</svg>
