<svg xmlns="http://www.w3.org/2000/svg" width="18.686" height="18.685" viewBox="0 0 18.686 18.685">
  <path id="Icon_awesome-phone" data-name="Icon awesome-phone" d="M18.006.9l-3.8-.876a.882.882,0,0,0-1,.507L11.455,4.616a.874.874,0,0,0,.252,1.022l2.212,1.81a13.525,13.525,0,0,1-6.467,6.467L5.642,11.7a.875.875,0,0,0-1.022-.252L.532,13.2a.886.886,0,0,0-.511,1.007l.876,3.8a.876.876,0,0,0,.854.679A16.932,16.932,0,0,0,18.685,1.751.875.875,0,0,0,18.006.9Z" transform="translate(0.001 0.001)" fill="#fff"/>
</svg>
